<?xml version="1.0" encoding="UTF-8" standalone="no"?>
<!DOCTYPE svg PUBLIC "-//W3C//DTD SVG 1.1//EN"
 "http://www.w3.org/Graphics/SVG/1.1/DTD/svg11.dtd">
<!-- Generated by graphviz version 2.44.0 (20200408.0750)
 -->
<!-- Title: de.uniks.pmws2021.model Pages: 1 -->
<svg width="409px" height="720px"
 viewBox="0.00 0.00 409.00 720.00" xmlns="http://www.w3.org/2000/svg" xmlns:xlink="http://www.w3.org/1999/xlink">
<g id="graph0" class="graph" transform="scale(1.0 1.0) rotate(0) translate(4 716)">
<title>de.uniks.pmws2021.model</title>
<polygon fill="white" stroke="transparent" points="-4,4 -4,-716 405,-716 405,4 -4,4"/>
<!-- sir_Slayalot -->
<g id="node1" class="node">
<title>sir_Slayalot</title>
<polygon fill="none" stroke="black" points="146.5,-690 146.5,-708 272.5,-708 272.5,-690 146.5,-690"/>
<text text-anchor="start" x="174.23" y="-697" font-family="Times,serif" text-decoration="underline" font-size="10.00">sir Slayalot :Hero</text>
<polygon fill="none" stroke="black" points="146.5,-588 146.5,-690 272.5,-690 272.5,-588 146.5,-588"/>
<text text-anchor="start" x="149.5" y="-678" font-family="Times,serif" font-size="10.00">coins = 100</text>
<text text-anchor="start" x="149.5" y="-666" font-family="Times,serif" font-size="10.00">doAction = false</text>
<text text-anchor="start" x="149.5" y="-654" font-family="Times,serif" font-size="10.00">heroId = 1</text>
<text text-anchor="start" x="149.5" y="-642" font-family="Times,serif" font-size="10.00">iconNr = 1</text>
<text text-anchor="start" x="149.5" y="-630" font-family="Times,serif" font-size="10.00">isAttackingThisRound = false</text>
<text text-anchor="start" x="149.5" y="-618" font-family="Times,serif" font-size="10.00">lp = 100</text>
<text text-anchor="start" x="149.5" y="-606" font-family="Times,serif" font-size="10.00">mode = &quot;normal&quot;</text>
<text text-anchor="start" x="149.5" y="-594" font-family="Times,serif" font-size="10.00">name = &quot;Sir Slayalot&quot;</text>
</g>
<!-- dragon -->
<g id="node2" class="node">
<title>dragon</title>
<polygon fill="none" stroke="black" points="106.5,-526 106.5,-544 203.5,-544 203.5,-526 106.5,-526"/>
<text text-anchor="start" x="124.31" y="-533" font-family="Times,serif" text-decoration="underline" font-size="10.00">dragon :Enemy</text>
<polygon fill="none" stroke="black" points="106.5,-424 106.5,-526 203.5,-526 203.5,-424 106.5,-424"/>
<text text-anchor="start" x="109.5" y="-514" font-family="Times,serif" font-size="10.00">atk = 12</text>
<text text-anchor="start" x="109.5" y="-502" font-family="Times,serif" font-size="10.00">coins = 13</text>
<text text-anchor="start" x="109.5" y="-490" font-family="Times,serif" font-size="10.00">def = 8</text>
<text text-anchor="start" x="109.5" y="-478" font-family="Times,serif" font-size="10.00">lp = 42</text>
<text text-anchor="start" x="109.5" y="-466" font-family="Times,serif" font-size="10.00">maxLp = 42</text>
<text text-anchor="start" x="109.5" y="-454" font-family="Times,serif" font-size="10.00">name = &quot;Dragon&quot;</text>
<text text-anchor="start" x="109.5" y="-442" font-family="Times,serif" font-size="10.00">oldStance = &quot;Defence&quot;</text>
<text text-anchor="start" x="109.5" y="-430" font-family="Times,serif" font-size="10.00">stance = &quot;Defence&quot;</text>
</g>
<!-- sir_Slayalot&#45;&gt;dragon -->
<g id="edge1" class="edge">
<title>sir_Slayalot&#45;&gt;dragon</title>
<path fill="none" stroke="black" d="M188.08,-583.9C184.1,-572.18 179.94,-559.92 175.95,-548.19"/>
<text text-anchor="middle" x="157.63" y="-551.19" font-family="Times,serif" font-size="10.00">attacking</text>
<text text-anchor="middle" x="169.75" y="-574.9" font-family="Times,serif" font-size="10.00">attacking</text>
</g>
<!-- chamber_of_R_leyh -->
<g id="node3" class="node">
<title>chamber_of_R_leyh</title>
<polygon fill="none" stroke="black" points="8.5,-362 8.5,-380 131.5,-380 131.5,-362 8.5,-362"/>
<text text-anchor="start" x="11.55" y="-369" font-family="Times,serif" text-decoration="underline" font-size="10.00">chamber of R&#39;leyh :Dungeon</text>
<polygon fill="none" stroke="black" points="8.5,-332 8.5,-362 131.5,-362 131.5,-332 8.5,-332"/>
<text text-anchor="start" x="11.5" y="-350" font-family="Times,serif" font-size="10.00">battleNr = 1</text>
<text text-anchor="start" x="11.5" y="-338" font-family="Times,serif" font-size="10.00">name = &quot;Chamber of R&#39;leyh&quot;</text>
</g>
<!-- sir_Slayalot&#45;&gt;chamber_of_R_leyh -->
<g id="edge2" class="edge">
<title>sir_Slayalot&#45;&gt;chamber_of_R_leyh</title>
<path fill="none" stroke="black" d="M138.36,-604.01C119.04,-588.78 100.23,-569.89 88.5,-548 60.32,-495.43 62.26,-422.99 65.97,-384.18"/>
<text text-anchor="middle" x="48.75" y="-387.18" font-family="Times,serif" font-size="10.00">dungeon</text>
<text text-anchor="middle" x="129.47" y="-607.01" font-family="Times,serif" font-size="10.00">hero</text>
</g>
<!-- a -->
<g id="node4" class="node">
<title>a</title>
<polygon fill="none" stroke="black" points="237.5,-496 237.5,-514 294.5,-514 294.5,-496 237.5,-496"/>
<text text-anchor="start" x="240.04" y="-503" font-family="Times,serif" text-decoration="underline" font-size="10.00">a :AttackStat</text>
<polygon fill="none" stroke="black" points="237.5,-454 237.5,-496 294.5,-496 294.5,-454 237.5,-454"/>
<text text-anchor="start" x="247.35" y="-484" font-family="Times,serif" font-size="10.00">cost = 3</text>
<text text-anchor="start" x="247.35" y="-472" font-family="Times,serif" font-size="10.00">level = 1</text>
<text text-anchor="start" x="247.35" y="-460" font-family="Times,serif" font-size="10.00">value = 8</text>
</g>
<!-- sir_Slayalot&#45;&gt;a -->
<g id="edge3" class="edge">
<title>sir_Slayalot&#45;&gt;a</title>
<path fill="none" stroke="black" d="M231.31,-583.9C239.05,-561.51 247.45,-537.21 253.99,-518.29"/>
<text text-anchor="middle" x="245.1" y="-521.29" font-family="Times,serif" font-size="10.00">stats</text>
<text text-anchor="middle" x="222.43" y="-574.9" font-family="Times,serif" font-size="10.00">hero</text>
</g>
<!-- d -->
<g id="node5" class="node">
<title>d</title>
<polygon fill="none" stroke="black" points="328.5,-496 328.5,-514 393.5,-514 393.5,-496 328.5,-496"/>
<text text-anchor="start" x="331.43" y="-503" font-family="Times,serif" text-decoration="underline" font-size="10.00">d :DefenceStat</text>
<polygon fill="none" stroke="black" points="328.5,-454 328.5,-496 393.5,-496 393.5,-454 328.5,-454"/>
<text text-anchor="start" x="339.85" y="-484" font-family="Times,serif" font-size="10.00">cost = 3</text>
<text text-anchor="start" x="339.85" y="-472" font-family="Times,serif" font-size="10.00">level = 1</text>
<text text-anchor="start" x="339.85" y="-460" font-family="Times,serif" font-size="10.00">value = 10</text>
</g>
<!-- sir_Slayalot&#45;&gt;d -->
<g id="edge4" class="edge">
<title>sir_Slayalot&#45;&gt;d</title>
<path fill="none" stroke="black" d="M277.23,-583.86C288.95,-572.21 300.79,-559.95 311.5,-548 319.92,-538.61 328.54,-527.93 336.16,-518.07"/>
<text text-anchor="middle" x="327.27" y="-521.07" font-family="Times,serif" font-size="10.00">stats</text>
<text text-anchor="middle" x="268.35" y="-574.86" font-family="Times,serif" font-size="10.00">hero</text>
</g>
<!-- dragon&#45;&gt;chamber_of_R_leyh -->
<g id="edge5" class="edge">
<title>dragon&#45;&gt;chamber_of_R_leyh</title>
<path fill="none" stroke="black" d="M111.75,-419.63C103.32,-407.13 94.9,-394.65 87.82,-384.15"/>
<text text-anchor="middle" x="105.04" y="-387.15" font-family="Times,serif" font-size="10.00">dungeon</text>
<text text-anchor="middle" x="95.37" y="-410.63" font-family="Times,serif" font-size="10.00">enemies</text>
</g>
<!-- wolf -->
<g id="node6" class="node">
<title>wolf</title>
<polygon fill="none" stroke="black" points="106.5,-270 106.5,-288 203.5,-288 203.5,-270 106.5,-270"/>
<text text-anchor="start" x="129.03" y="-277" font-family="Times,serif" text-decoration="underline" font-size="10.00">wolf :Enemy</text>
<polygon fill="none" stroke="black" points="106.5,-168 106.5,-270 203.5,-270 203.5,-168 106.5,-168"/>
<text text-anchor="start" x="109.5" y="-258" font-family="Times,serif" font-size="10.00">atk = 17</text>
<text text-anchor="start" x="109.5" y="-246" font-family="Times,serif" font-size="10.00">coins = 8</text>
<text text-anchor="start" x="109.5" y="-234" font-family="Times,serif" font-size="10.00">def = 16</text>
<text text-anchor="start" x="109.5" y="-222" font-family="Times,serif" font-size="10.00">lp = 37</text>
<text text-anchor="start" x="109.5" y="-210" font-family="Times,serif" font-size="10.00">maxLp = 37</text>
<text text-anchor="start" x="109.5" y="-198" font-family="Times,serif" font-size="10.00">name = &quot;Wolf&quot;</text>
<text text-anchor="start" x="109.5" y="-186" font-family="Times,serif" font-size="10.00">oldStance = &quot;Defence&quot;</text>
<text text-anchor="start" x="109.5" y="-174" font-family="Times,serif" font-size="10.00">stance = &quot;Defence&quot;</text>
</g>
<!-- dragon&#45;&gt;wolf -->
<g id="edge6" class="edge">
<title>dragon&#45;&gt;wolf</title>
<path fill="none" stroke="black" d="M154.5,-419.89C154.5,-380.95 154.5,-331.18 154.5,-292.23"/>
<text text-anchor="middle" x="145.89" y="-295.23" font-family="Times,serif" font-size="10.00">next</text>
<text text-anchor="middle" x="137.28" y="-410.89" font-family="Times,serif" font-size="10.00">previous</text>
</g>
<!-- chamber_of_R_leyh&#45;&gt;wolf -->
<g id="edge7" class="edge">
<title>chamber_of_R_leyh&#45;&gt;wolf</title>
<path fill="none" stroke="black" d="M87.73,-327.97C94.86,-317.41 103.35,-304.83 111.84,-292.23"/>
<text text-anchor="middle" x="95.46" y="-295.23" font-family="Times,serif" font-size="10.00">enemies</text>
<text text-anchor="middle" x="104.95" y="-318.97" font-family="Times,serif" font-size="10.00">dungeon</text>
</g>
<!-- dragon1 -->
<g id="node7" class="node">
<title>dragon1</title>
<polygon fill="none" stroke="black" points="63.5,-106 63.5,-124 160.5,-124 160.5,-106 63.5,-106"/>
<text text-anchor="start" x="81.31" y="-113" font-family="Times,serif" text-decoration="underline" font-size="10.00">dragon :Enemy</text>
<polygon fill="none" stroke="black" points="63.5,-4 63.5,-106 160.5,-106 160.5,-4 63.5,-4"/>
<text text-anchor="start" x="66.5" y="-94" font-family="Times,serif" font-size="10.00">atk = 16</text>
<text text-anchor="start" x="66.5" y="-82" font-family="Times,serif" font-size="10.00">coins = 12</text>
<text text-anchor="start" x="66.5" y="-70" font-family="Times,serif" font-size="10.00">def = 5</text>
<text text-anchor="start" x="66.5" y="-58" font-family="Times,serif" font-size="10.00">lp = 16</text>
<text text-anchor="start" x="66.5" y="-46" font-family="Times,serif" font-size="10.00">maxLp = 16</text>
<text text-anchor="start" x="66.5" y="-34" font-family="Times,serif" font-size="10.00">name = &quot;Dragon&quot;</text>
<text text-anchor="start" x="66.5" y="-22" font-family="Times,serif" font-size="10.00">oldStance = &quot;Defence&quot;</text>
<text text-anchor="start" x="66.5" y="-10" font-family="Times,serif" font-size="10.00">stance = &quot;Defence&quot;</text>
</g>
<!-- chamber_of_R_leyh&#45;&gt;dragon1 -->
<g id="edge8" class="edge">
<title>chamber_of_R_leyh&#45;&gt;dragon1</title>
<path fill="none" stroke="black" d="M71.09,-327.97C73.51,-290.83 78.91,-222.03 88.5,-164 90.43,-152.34 92.92,-140 95.55,-128.13"/>
<text text-anchor="middle" x="79.17" y="-131.13" font-family="Times,serif" font-size="10.00">enemies</text>
<text text-anchor="middle" x="53.87" y="-318.97" font-family="Times,serif" font-size="10.00">dungeon</text>
</g>
<!-- wolf&#45;&gt;dragon1 -->
<g id="edge9" class="edge">
<title>wolf&#45;&gt;dragon1</title>
<path fill="none" stroke="black" d="M137.75,-163.9C134.64,-152.18 131.39,-139.92 128.27,-128.19"/>
<text text-anchor="middle" x="119.66" y="-131.19" font-family="Times,serif" font-size="10.00">next</text>
<text text-anchor="middle" x="120.53" y="-154.9" font-family="Times,serif" font-size="10.00">previous</text>
</g>
</g>
</svg>
