<?xml version="1.0" encoding="UTF-8" standalone="no"?>
<!DOCTYPE svg PUBLIC "-//W3C//DTD SVG 1.1//EN"
 "http://www.w3.org/Graphics/SVG/1.1/DTD/svg11.dtd">
<!-- Generated by graphviz version 2.44.0 (20200408.0750)
 -->
<!-- Title: de.uniks.pmws2021.model Pages: 1 -->
<svg width="360px" height="1048px"
 viewBox="0.00 0.00 359.50 1048.00" xmlns="http://www.w3.org/2000/svg" xmlns:xlink="http://www.w3.org/1999/xlink">
<g id="graph0" class="graph" transform="scale(1.0 1.0) rotate(0) translate(4 1044)">
<title>de.uniks.pmws2021.model</title>
<polygon fill="white" stroke="transparent" points="-4,4 -4,-1044 355.5,-1044 355.5,4 -4,4"/>
<!-- sir_Slayalot -->
<g id="node1" class="node">
<title>sir_Slayalot</title>
<polygon fill="none" stroke="black" points="120,-1018 120,-1036 246,-1036 246,-1018 120,-1018"/>
<text text-anchor="start" x="147.73" y="-1025" font-family="Times,serif" text-decoration="underline" font-size="10.00">sir Slayalot :Hero</text>
<polygon fill="none" stroke="black" points="120,-916 120,-1018 246,-1018 246,-916 120,-916"/>
<text text-anchor="start" x="123" y="-1006" font-family="Times,serif" font-size="10.00">coins = 100</text>
<text text-anchor="start" x="123" y="-994" font-family="Times,serif" font-size="10.00">doAction = false</text>
<text text-anchor="start" x="123" y="-982" font-family="Times,serif" font-size="10.00">heroId = 1</text>
<text text-anchor="start" x="123" y="-970" font-family="Times,serif" font-size="10.00">iconNr = 1</text>
<text text-anchor="start" x="123" y="-958" font-family="Times,serif" font-size="10.00">isAttackingThisRound = false</text>
<text text-anchor="start" x="123" y="-946" font-family="Times,serif" font-size="10.00">lp = 100</text>
<text text-anchor="start" x="123" y="-934" font-family="Times,serif" font-size="10.00">mode = &quot;normal&quot;</text>
<text text-anchor="start" x="123" y="-922" font-family="Times,serif" font-size="10.00">name = &quot;Sir Slayalot&quot;</text>
</g>
<!-- bat -->
<g id="node2" class="node">
<title>bat</title>
<polygon fill="none" stroke="black" points="25,-854 25,-872 115,-872 115,-854 25,-854"/>
<text text-anchor="start" x="47.09" y="-861" font-family="Times,serif" text-decoration="underline" font-size="10.00">bat :Enemy</text>
<polygon fill="none" stroke="black" points="25,-752 25,-854 115,-854 115,-752 25,-752"/>
<text text-anchor="start" x="28" y="-842" font-family="Times,serif" font-size="10.00">atk = 9</text>
<text text-anchor="start" x="28" y="-830" font-family="Times,serif" font-size="10.00">coins = 11</text>
<text text-anchor="start" x="28" y="-818" font-family="Times,serif" font-size="10.00">def = 11</text>
<text text-anchor="start" x="28" y="-806" font-family="Times,serif" font-size="10.00">lp = 38</text>
<text text-anchor="start" x="28" y="-794" font-family="Times,serif" font-size="10.00">maxLp = 38</text>
<text text-anchor="start" x="28" y="-782" font-family="Times,serif" font-size="10.00">name = &quot;Bat&quot;</text>
<text text-anchor="start" x="28" y="-770" font-family="Times,serif" font-size="10.00">oldStance = &quot;Attack&quot;</text>
<text text-anchor="start" x="28" y="-758" font-family="Times,serif" font-size="10.00">stance = &quot;Attack&quot;</text>
</g>
<!-- sir_Slayalot&#45;&gt;bat -->
<g id="edge1" class="edge">
<title>sir_Slayalot&#45;&gt;bat</title>
<path fill="none" stroke="black" d="M138.99,-911.9C130.81,-900.18 122.26,-887.92 114.08,-876.19"/>
<text text-anchor="middle" x="95.75" y="-879.19" font-family="Times,serif" font-size="10.00">attacking</text>
<text text-anchor="middle" x="120.66" y="-902.9" font-family="Times,serif" font-size="10.00">attacking</text>
</g>
<!-- chamber_of_R_leyh -->
<g id="node3" class="node">
<title>chamber_of_R_leyh</title>
<polygon fill="none" stroke="black" points="90,-690 90,-708 213,-708 213,-690 90,-690"/>
<text text-anchor="start" x="93.05" y="-697" font-family="Times,serif" text-decoration="underline" font-size="10.00">chamber of R&#39;leyh :Dungeon</text>
<polygon fill="none" stroke="black" points="90,-660 90,-690 213,-690 213,-660 90,-660"/>
<text text-anchor="start" x="93" y="-678" font-family="Times,serif" font-size="10.00">battleNr = 1</text>
<text text-anchor="start" x="93" y="-666" font-family="Times,serif" font-size="10.00">name = &quot;Chamber of R&#39;leyh&quot;</text>
</g>
<!-- sir_Slayalot&#45;&gt;chamber_of_R_leyh -->
<g id="edge2" class="edge">
<title>sir_Slayalot&#45;&gt;chamber_of_R_leyh</title>
<path fill="none" stroke="black" d="M175.2,-911.91C173.77,-899.98 172.31,-887.61 171,-876 164.41,-817.69 157.43,-749.28 153.71,-712.22"/>
<text text-anchor="middle" x="136.49" y="-715.22" font-family="Times,serif" font-size="10.00">dungeon</text>
<text text-anchor="middle" x="166.31" y="-902.91" font-family="Times,serif" font-size="10.00">hero</text>
</g>
<!-- a -->
<g id="node4" class="node">
<title>a</title>
<polygon fill="none" stroke="black" points="188,-824 188,-842 245,-842 245,-824 188,-824"/>
<text text-anchor="start" x="190.54" y="-831" font-family="Times,serif" text-decoration="underline" font-size="10.00">a :AttackStat</text>
<polygon fill="none" stroke="black" points="188,-782 188,-824 245,-824 245,-782 188,-782"/>
<text text-anchor="start" x="197.85" y="-812" font-family="Times,serif" font-size="10.00">cost = 3</text>
<text text-anchor="start" x="197.85" y="-800" font-family="Times,serif" font-size="10.00">level = 1</text>
<text text-anchor="start" x="197.85" y="-788" font-family="Times,serif" font-size="10.00">value = 8</text>
</g>
<!-- sir_Slayalot&#45;&gt;a -->
<g id="edge3" class="edge">
<title>sir_Slayalot&#45;&gt;a</title>
<path fill="none" stroke="black" d="M195.85,-911.9C200.41,-889.51 205.37,-865.21 209.22,-846.29"/>
<text text-anchor="middle" x="200.33" y="-849.29" font-family="Times,serif" font-size="10.00">stats</text>
<text text-anchor="middle" x="186.97" y="-902.9" font-family="Times,serif" font-size="10.00">hero</text>
</g>
<!-- d -->
<g id="node5" class="node">
<title>d</title>
<polygon fill="none" stroke="black" points="279,-824 279,-842 344,-842 344,-824 279,-824"/>
<text text-anchor="start" x="281.93" y="-831" font-family="Times,serif" text-decoration="underline" font-size="10.00">d :DefenceStat</text>
<polygon fill="none" stroke="black" points="279,-782 279,-824 344,-824 344,-782 279,-782"/>
<text text-anchor="start" x="290.35" y="-812" font-family="Times,serif" font-size="10.00">cost = 3</text>
<text text-anchor="start" x="290.35" y="-800" font-family="Times,serif" font-size="10.00">level = 1</text>
<text text-anchor="start" x="290.35" y="-788" font-family="Times,serif" font-size="10.00">value = 10</text>
</g>
<!-- sir_Slayalot&#45;&gt;d -->
<g id="edge4" class="edge">
<title>sir_Slayalot&#45;&gt;d</title>
<path fill="none" stroke="black" d="M233.48,-911.98C242.98,-900.05 252.81,-887.66 262,-876 269.63,-866.31 277.88,-855.75 285.39,-846.08"/>
<text text-anchor="middle" x="276.5" y="-849.08" font-family="Times,serif" font-size="10.00">stats</text>
<text text-anchor="middle" x="224.6" y="-902.98" font-family="Times,serif" font-size="10.00">hero</text>
</g>
<!-- bat&#45;&gt;chamber_of_R_leyh -->
<g id="edge5" class="edge">
<title>bat&#45;&gt;chamber_of_R_leyh</title>
<path fill="none" stroke="black" d="M110.74,-747.63C118.77,-735.13 126.8,-722.65 133.54,-712.15"/>
<text text-anchor="middle" x="116.32" y="-715.15" font-family="Times,serif" font-size="10.00">dungeon</text>
<text text-anchor="middle" x="94.36" y="-738.63" font-family="Times,serif" font-size="10.00">enemies</text>
</g>
<!-- bat1 -->
<g id="node6" class="node">
<title>bat1</title>
<polygon fill="none" stroke="black" points="8,-598 8,-616 98,-616 98,-598 8,-598"/>
<text text-anchor="start" x="30.09" y="-605" font-family="Times,serif" text-decoration="underline" font-size="10.00">bat :Enemy</text>
<polygon fill="none" stroke="black" points="8,-496 8,-598 98,-598 98,-496 8,-496"/>
<text text-anchor="start" x="11" y="-586" font-family="Times,serif" font-size="10.00">atk = 9</text>
<text text-anchor="start" x="11" y="-574" font-family="Times,serif" font-size="10.00">coins = 13</text>
<text text-anchor="start" x="11" y="-562" font-family="Times,serif" font-size="10.00">def = 20</text>
<text text-anchor="start" x="11" y="-550" font-family="Times,serif" font-size="10.00">lp = 31</text>
<text text-anchor="start" x="11" y="-538" font-family="Times,serif" font-size="10.00">maxLp = 31</text>
<text text-anchor="start" x="11" y="-526" font-family="Times,serif" font-size="10.00">name = &quot;Bat&quot;</text>
<text text-anchor="start" x="11" y="-514" font-family="Times,serif" font-size="10.00">oldStance = &quot;Attack&quot;</text>
<text text-anchor="start" x="11" y="-502" font-family="Times,serif" font-size="10.00">stance = &quot;Attack&quot;</text>
</g>
<!-- bat&#45;&gt;bat1 -->
<g id="edge6" class="edge">
<title>bat&#45;&gt;bat1</title>
<path fill="none" stroke="black" d="M65.78,-747.89C63.17,-708.95 59.84,-659.18 57.23,-620.23"/>
<text text-anchor="middle" x="48.62" y="-623.23" font-family="Times,serif" font-size="10.00">next</text>
<text text-anchor="middle" x="48.56" y="-738.89" font-family="Times,serif" font-size="10.00">previous</text>
</g>
<!-- chamber_of_R_leyh&#45;&gt;bat1 -->
<g id="edge7" class="edge">
<title>chamber_of_R_leyh&#45;&gt;bat1</title>
<path fill="none" stroke="black" d="M129.98,-655.97C121.77,-645.41 111.98,-632.83 102.18,-620.23"/>
<text text-anchor="middle" x="85.8" y="-623.23" font-family="Times,serif" font-size="10.00">enemies</text>
<text text-anchor="middle" x="112.76" y="-646.97" font-family="Times,serif" font-size="10.00">dungeon</text>
</g>
<!-- bat2 -->
<g id="node7" class="node">
<title>bat2</title>
<polygon fill="none" stroke="black" points="46,-434 46,-452 136,-452 136,-434 46,-434"/>
<text text-anchor="start" x="68.09" y="-441" font-family="Times,serif" text-decoration="underline" font-size="10.00">bat :Enemy</text>
<polygon fill="none" stroke="black" points="46,-332 46,-434 136,-434 136,-332 46,-332"/>
<text text-anchor="start" x="49" y="-422" font-family="Times,serif" font-size="10.00">atk = 17</text>
<text text-anchor="start" x="49" y="-410" font-family="Times,serif" font-size="10.00">coins = 7</text>
<text text-anchor="start" x="49" y="-398" font-family="Times,serif" font-size="10.00">def = 14</text>
<text text-anchor="start" x="49" y="-386" font-family="Times,serif" font-size="10.00">lp = 54</text>
<text text-anchor="start" x="49" y="-374" font-family="Times,serif" font-size="10.00">maxLp = 54</text>
<text text-anchor="start" x="49" y="-362" font-family="Times,serif" font-size="10.00">name = &quot;Bat&quot;</text>
<text text-anchor="start" x="49" y="-350" font-family="Times,serif" font-size="10.00">oldStance = &quot;Attack&quot;</text>
<text text-anchor="start" x="49" y="-338" font-family="Times,serif" font-size="10.00">stance = &quot;Attack&quot;</text>
</g>
<!-- chamber_of_R_leyh&#45;&gt;bat2 -->
<g id="edge8" class="edge">
<title>chamber_of_R_leyh&#45;&gt;bat2</title>
<path fill="none" stroke="black" d="M146.31,-655.71C139.83,-618.56 127.5,-550.06 115,-492 112.51,-480.42 109.67,-468.11 106.85,-456.26"/>
<text text-anchor="middle" x="90.47" y="-459.26" font-family="Times,serif" font-size="10.00">enemies</text>
<text text-anchor="middle" x="163.53" y="-646.71" font-family="Times,serif" font-size="10.00">dungeon</text>
</g>
<!-- dragon -->
<g id="node8" class="node">
<title>dragon</title>
<polygon fill="none" stroke="black" points="77,-270 77,-288 174,-288 174,-270 77,-270"/>
<text text-anchor="start" x="94.81" y="-277" font-family="Times,serif" text-decoration="underline" font-size="10.00">dragon :Enemy</text>
<polygon fill="none" stroke="black" points="77,-168 77,-270 174,-270 174,-168 77,-168"/>
<text text-anchor="start" x="80" y="-258" font-family="Times,serif" font-size="10.00">atk = 16</text>
<text text-anchor="start" x="80" y="-246" font-family="Times,serif" font-size="10.00">coins = 5</text>
<text text-anchor="start" x="80" y="-234" font-family="Times,serif" font-size="10.00">def = 15</text>
<text text-anchor="start" x="80" y="-222" font-family="Times,serif" font-size="10.00">lp = 44</text>
<text text-anchor="start" x="80" y="-210" font-family="Times,serif" font-size="10.00">maxLp = 44</text>
<text text-anchor="start" x="80" y="-198" font-family="Times,serif" font-size="10.00">name = &quot;Dragon&quot;</text>
<text text-anchor="start" x="80" y="-186" font-family="Times,serif" font-size="10.00">oldStance = &quot;Defence&quot;</text>
<text text-anchor="start" x="80" y="-174" font-family="Times,serif" font-size="10.00">stance = &quot;Defence&quot;</text>
</g>
<!-- chamber_of_R_leyh&#45;&gt;dragon -->
<g id="edge9" class="edge">
<title>chamber_of_R_leyh&#45;&gt;dragon</title>
<path fill="none" stroke="black" d="M153.8,-655.66C159.35,-595.87 169.81,-449.18 153,-328 151.37,-316.23 148.69,-303.9 145.63,-292.09"/>
<text text-anchor="middle" x="129.25" y="-295.09" font-family="Times,serif" font-size="10.00">enemies</text>
<text text-anchor="middle" x="136.58" y="-646.66" font-family="Times,serif" font-size="10.00">dungeon</text>
</g>
<!-- dragon3 -->
<g id="node9" class="node">
<title>dragon3</title>
<polygon fill="none" stroke="black" points="122,-106 122,-124 212,-124 212,-106 122,-106"/>
<text text-anchor="start" x="136.31" y="-113" font-family="Times,serif" text-decoration="underline" font-size="10.00">dragon :Enemy</text>
<polygon fill="none" stroke="black" points="122,-4 122,-106 212,-106 212,-4 122,-4"/>
<text text-anchor="start" x="125" y="-94" font-family="Times,serif" font-size="10.00">atk = 13</text>
<text text-anchor="start" x="125" y="-82" font-family="Times,serif" font-size="10.00">coins = 14</text>
<text text-anchor="start" x="125" y="-70" font-family="Times,serif" font-size="10.00">def = 23</text>
<text text-anchor="start" x="125" y="-58" font-family="Times,serif" font-size="10.00">lp = 27</text>
<text text-anchor="start" x="125" y="-46" font-family="Times,serif" font-size="10.00">maxLp = 27</text>
<text text-anchor="start" x="125" y="-34" font-family="Times,serif" font-size="10.00">name = &quot;Dragon&quot;</text>
<text text-anchor="start" x="125" y="-22" font-family="Times,serif" font-size="10.00">oldStance = &quot;Attack&quot;</text>
<text text-anchor="start" x="125" y="-10" font-family="Times,serif" font-size="10.00">stance = &quot;Attack&quot;</text>
</g>
<!-- chamber_of_R_leyh&#45;&gt;dragon3 -->
<g id="edge10" class="edge">
<title>chamber_of_R_leyh&#45;&gt;dragon3</title>
<path fill="none" stroke="black" d="M162.35,-655.87C166.43,-644.92 170.62,-632.05 173,-620 212.38,-421.04 215.06,-365.39 191,-164 189.6,-152.32 187.31,-140.03 184.69,-128.23"/>
<text text-anchor="middle" x="168.31" y="-131.23" font-family="Times,serif" font-size="10.00">enemies</text>
<text text-anchor="middle" x="179.57" y="-646.87" font-family="Times,serif" font-size="10.00">dungeon</text>
</g>
<!-- bat1&#45;&gt;bat2 -->
<g id="edge11" class="edge">
<title>bat1&#45;&gt;bat2</title>
<path fill="none" stroke="black" d="M67.8,-491.9C70.55,-480.18 73.43,-467.92 76.18,-456.19"/>
<text text-anchor="middle" x="67.57" y="-459.19" font-family="Times,serif" font-size="10.00">next</text>
<text text-anchor="middle" x="50.58" y="-482.9" font-family="Times,serif" font-size="10.00">previous</text>
</g>
<!-- bat2&#45;&gt;dragon -->
<g id="edge12" class="edge">
<title>bat2&#45;&gt;dragon</title>
<path fill="none" stroke="black" d="M104.24,-327.9C106.7,-316.18 109.28,-303.92 111.74,-292.19"/>
<text text-anchor="middle" x="103.13" y="-295.19" font-family="Times,serif" font-size="10.00">next</text>
<text text-anchor="middle" x="87.02" y="-318.9" font-family="Times,serif" font-size="10.00">previous</text>
</g>
<!-- dragon&#45;&gt;dragon3 -->
<g id="edge13" class="edge">
<title>dragon&#45;&gt;dragon3</title>
<path fill="none" stroke="black" d="M141.36,-163.9C144.4,-152.18 147.58,-139.92 150.62,-128.19"/>
<text text-anchor="middle" x="142.01" y="-131.19" font-family="Times,serif" font-size="10.00">next</text>
<text text-anchor="middle" x="124.14" y="-154.9" font-family="Times,serif" font-size="10.00">previous</text>
</g>
</g>
</svg>
